<?xml version="1.0" encoding="UTF-8"?>
<svg width="25px" height="41px" viewBox="0 0 25 41" version="1.1" xmlns="http://www.w3.org/2000/svg" xmlns:xlink="http://www.w3.org/1999/xlink">
    <g stroke="none" stroke-width="1" fill="none" fill-rule="evenodd">
        <g transform="translate(-125.000000, -643.000000)" fill="#2563EB" fill-rule="nonzero">
            <g transform="translate(125.000000, 643.000000)">
                <path d="M12.5,0 C5.596,0 0,5.535 0,12.363 C0,21.672 12.5,41 12.5,41 C12.5,41 25,21.672 25,12.363 C25,5.535 19.404,0 12.5,0 Z M12.5,16.801 C10.014,16.801 8,14.809 8,12.35 C8,9.891 10.014,7.9 12.5,7.9 C14.985,7.9 17,9.891 17,12.35 C17,14.809 14.985,16.801 12.5,16.801 Z" id="user-marker"></path>
            </g>
        </g>
    </g>
    <circle cx="12.5" cy="12.5" r="5" fill="#FFFFFF"/>
</svg>
